<svg width="48" height="48" viewBox="0 0 48 48" fill="none" xmlns="http://www.w3.org/2000/svg">
  <path d="M34 20C34 13.3726 28.6274 8 22 8C16.8916 8 12.5312 11.1963 10.7482 15.7171C10.4221 15.7058 10.0886 15.7 9.75 15.7C5.47039 15.7 2 19.1704 2 23.45C2 27.7296 5.47039 31.2 9.75 31.2H12C12.7766 35.1098 16.2234 38 20.35 38H33.5C39.299 38 44 33.299 44 27.5C44 22.0963 39.9205 17.6457 34.6738 17.056C34.2589 18.0068 34 19.043 34 20Z" fill="#38BDF8"/>
  <path d="M22 18C22 18 16 22 16 29C16 33.4 19.6 37 24 37C28.4 37 32 33.4 32 29C32 22 26 18 26 18" fill="#10B981"/>
  <path d="M24 37V27M24 32C26 31 28 30 28 30M24 34C22 33 20 32 20 32" stroke="#047857" stroke-width="2" stroke-linecap="round"/>
</svg>
